<?xml version="1.0" standalone="no"?>
<!DOCTYPE svg PUBLIC "-//W3C//DTD SVG 20010904//EN"
 "http://www.w3.org/TR/2001/REC-SVG-20010904/DTD/svg10.dtd">
<svg version="1.0" xmlns="http://www.w3.org/2000/svg"
 width="256.000000pt" height="256.000000pt" viewBox="0 0 256.000000 256.000000"
 preserveAspectRatio="xMidYMid meet">
<metadata>
Created by potrace 1.14, written by Peter Selinger 2001-2017
</metadata>
<g transform="translate(0.000000,256.000000) scale(0.100000,-0.100000)"
fill="#000000" stroke="none">
<path d="M0 1280 l0 -1280 55 0 55 0 0 1280 0 1280 -55 0 -55 0 0 -1280z"/>
<path d="M295 2439 c66 -66 299 -296 518 -511 l397 -390 0 511 0 511 -517 0
-518 0 120 -121z"/>
<path d="M1390 2447 c63 -62 352 -349 643 -637 l527 -524 0 637 0 637 -642 0
-643 0 115 -113z"/>
<path d="M1916 634 l-639 -634 642 0 641 0 0 635 c0 349 -1 635 -2 634 -2 0
-291 -286 -642 -635z"/>
<path d="M690 510 l-515 -509 518 0 517 -1 0 510 c0 281 -1 510 -2 510 -2 0
-235 -229 -518 -510z"/>
</g>
</svg>
