<?xml version="1.0" encoding="utf-8"?>
<!-- Generator: Adobe Illustrator 26.0.3, SVG Export Plug-In . SVG Version: 6.00 Build 0)  -->
<svg version="1.1" id="Capa_1" xmlns="http://www.w3.org/2000/svg" xmlns:xlink="http://www.w3.org/1999/xlink" x="0px" y="0px"
	 viewBox="0 0 900 696" style="enable-background:new 0 0 900 696;" xml:space="preserve">
<style type="text/css">
	.st0{fill:#FFFFFF;}
</style>
<path class="st0" d="M368.8,175.4c-5.7,0-7.5-2.6-7.9-11.3c-0.2-4-0.5-7.8-0.7-8.4c-0.8-2.5-3.3-0.1-4.4,4c-0.5,2.4-3.7,9.7-7,16.4
	l-6,12.2l8.2,1.7l8.1,1.8l-6.8,3.2c-3.8,1.8-7,3.4-7.2,3.6c-0.1,0.2,2.8,0.2,6.7,0c6.6-0.4,7.2-0.3,13.7,3.7
	c3.7,2.2,8.2,4.6,10.1,5.2c3.1,1.1,3.6,1,5.4-1.2c1.6-2,1.8-3.3,1.3-7.9c-1.3-10.8-1.5-10,3.6-12c6.4-2.4,10.1-5.2,12.3-9.4l1.9-3.6
	l-3.2-3.3c-3.9-4-3.9-4.7-0.6-7.8c3.9-3.5,8.4-10.9,8.4-13.7c0-3.2-4.8-7.8-9.6-9.1c-4.5-1.2-12.3-1.3-17.4-0.1
	c-5.5,1.3-7.8,5.3-7.2,12.3c0.1,1,1.5,2.9,3.1,4.3c3.3,2.8,6.4,9.7,5.6,12.5C378.1,171.9,372.8,175.4,368.8,175.4z"/>
<path class="st0" d="M792.7,61.5c-4.3-8.5-15.4-18.1-20.8-18.1c-1.5,0-4-1.5-6.4-4c-2.2-2.2-4.3-4-4.7-3.9c-0.3,0-1.8,0.9-3.3,2.1
	c-2.5,2-3.1,2-13.5,0.9c-5.9-0.6-18.1-1.1-27-1.2c-18,0-19.7,0.4-25.2,6.6c-2.5,2.9-3.1,4.4-3.1,8.3c0,5.9,2.4,15.6,5,19.7
	c2.6,4.2,8.8,7.5,14.1,7.5c5.7,0.1,12.6,3.2,14.1,6.5c0.9,1.9,0.9,3.7,0,7.5c-0.6,2.7-0.9,5.5-0.7,6.2c0.3,0.7,2.5,2.6,5,4.1
	c2.4,1.6,5.4,4.4,6.6,6.3c3.1,5,8.4,7.4,16.5,7.4c6.1,0,6.8-0.2,9.5-3.1c1.5-1.7,4.5-3.5,6.4-4c7.4-2.1,14.5-10.8,16-19.6
	c0.6-3.6,1.2-4.5,4.3-6c2.3-1.1,3.9-2.7,4.2-4.3c0.4-1.6,1.6-2.8,3.5-3.5c4-1.2,4.2-1.5,2.5-2.5c-0.9-0.6-1.4-2.4-1.3-5.1
	C794.5,66.9,793.8,63.6,792.7,61.5z"/>
<path class="st0" d="M651.7,107.9c-4.8,0.5-6.2,0.2-11-2.2c-4.6-2.3-5.7-3.5-6.8-6.8c-2.7-8.4-6.5-9.2-21.2-4.9
	c-10.7,3.2-16.2,5.6-22.5,10c-3,2-11.6,5.7-20.5,8.9c-8.5,3-16.3,6.3-17.4,7.4c-1.8,1.9-1.9,2.4-0.7,9.1c1.4,7.8,0.9,12.5-2,18.2
	c-2.5,4.9-2.4,6.7,0.5,9.7c6.2,6.5,12,24.7,13.6,42.6c1,10.9,1.6,13.5,3.4,13.5c0.6,0,3,1.7,5.3,3.9c2.9,2.6,6.2,4.4,10.2,5.5
	c3.2,0.9,7.1,2.6,8.6,3.8c2.7,2.1,2.7,2.2,0.6,2.9c-2.9,1.1-2.7,2.3,1.4,6.4c5.2,5.1,9.3,4.3,7.8-1.6c-0.6-2-0.4-2.1,2.3-1.5
	c9.1,2.1,32.9,15.9,38,21.9c3.7,4.5,5,5,7.8,3.2c3.1-2,4.6-1.3,10.4,4.9c2.4,2.5,4.9,4.6,5.7,4.6c0.7,0,3.9-1.4,7-3
	c5-2.6,6.7-3,13.9-3c9.5,0,15.6,1.8,26.3,7.6c3.9,2.2,7.5,3.6,7.9,3.1c0.4-0.4,0-2.3-0.9-4.2c-3.7-7.7-2.7-9.4,16.5-29.1
	c11.8-12.1,11.7-11.9,7.5-20c-3.2-6.2-4.9-13.4-6.2-25.3l-1.3-12.3l-4.1-4.2c-2.3-2.3-4.1-4.6-4.1-5.2c0-0.5,2.3-3.2,5.1-5.9
	c2.8-2.8,5.9-6.7,7-8.7c1.9-3.7,1.9-3.8-0.6-15.5c-2.4-11.6-7.7-29.5-9.4-32.1c-1.5-2.4-16.1-3.3-44.7-2.8
	C669.7,107.1,654.7,107.6,651.7,107.9z"/>
<path class="st0" d="M381,240c2.7,0.3,5-3.9,4.2-7.5c-0.8-3.7-4.8-8.1-7.3-8.1c-2.7,0-3.9-1.7-4.7-7c-0.9-5.4-2.5-7.5-8.6-10.5
	c-2.5-1.3-5.1-3.1-5.8-3.9c-1.8-2.1-2.2-2.1-12.6,2c-9.1,3.7-9.3,3.7-19.1,1.8c-6.4-1.2-14,5.1-13.2,10.9c0.3,2,0.8,2.2,5.5,1.9
	c5.1-0.2,5.3-0.2,7.2,3.5c2.4,4.7,4.2,6.4,10.8,9.7c6,3,8.8,6.5,8.1,10.1c-0.3,1.4-0.2,2.8,0.3,3.1c1.1,0.6,4.5-1.1,8.2-4.2
	c3.4-2.9,4.7-3,4.7-0.6c0,3.6,5.2,12.3,8.8,14.7c6.8,4.6,10.8,2.6,9.9-4.7C376.6,245.8,378.6,239.8,381,240z"/>
<path class="st0" d="M597.2,322.4c-0.8,0.7-2.2,3.8-3.1,6.8c-2.2,7.6-1.4,15,2.3,20.2c3.7,5.4,15.2,13,25.3,16.9
	c7.5,2.9,8.3,3.1,10.8,1.7c8.4-4.7,12-5.6,39.5-10.6c16.9-3,16.7-2.9,19.6-13.5c2.4-9.1,21.8-34.5,26.2-34.5c3.6,0,3.2-2.4-1.1-6.2
	c-4-3.6-11.8-6.8-16.4-6.8c-1.1,0-2.9-0.9-4.1-2c-2.4-2.2-10.9-3.3-16.7-2.1c-2.2,0.5-5.5,2.4-8.2,4.9c-4.1,3.8-5.1,4.2-9.6,4.2
	c-2.7,0-5,0.4-5,0.9c0,1.2-5.6,3.1-9,3.1c-2.6,0-6,2.6-6,4.7c0,2.2-6.6,3.8-15.6,3.8c-8.4,0-9.4-0.2-13.3-2.9
	c-2.3-1.6-4.3-2.7-4.4-2.5c-0.2,0.2-1.1,1.7-2.1,3.2c-1,1.6-3.3,3.5-5.2,4.3c-2.7,1.1-3.4,1.9-2.9,3.3
	C598.5,320.3,598.1,321.7,597.2,322.4z"/>
<path class="st0" d="M383.3,260.1c2.2,0.8,5.4-3.1,5.4-6.6c0-5.5-6.9-12.4-8.4-8.4C378.5,249.7,380.4,259,383.3,260.1z"/>
<path class="st0" d="M630.6,7.4c1.8,0,5.9-4.1,7.5-7.4h-9.9C628.5,3.4,629.6,7.4,630.6,7.4z"/>
<path class="st0" d="M687,75.2c-0.5-0.2-2.9,1.8-5.4,4.4c-4.7,4.9-4.6,5.4,1.1,4.9c1.4-0.1,3.1-0.9,3.8-1.8
	C687.8,80.9,688.2,75.7,687,75.2z"/>
<path class="st0" d="M562.6,78c-2.2-2.9-4.9-3.5-4.9-1.1c0,1.9,3.6,5.5,5.5,5.5C565.2,82.4,565.1,81.2,562.6,78z"/>
<path class="st0" d="M610.8,278.9c5.8,0,12.4-4.1,14.5-9.1c1.1-2.5,3.2-4.6,7.4-7.2c7.6-4.7,7.9-6.9,1.4-11.5
	c-6.1-4.4-24.3-13.7-26.7-13.7c-1.1,0-3.2,1.1-4.9,2.5c-1.6,1.4-3.4,2.5-3.9,2.5c-1.8,0-10.9-9.3-11.5-11.7c-0.8-2.9-4-4.6-11.8-6.4
	c-4.4-1.1-6-1.9-6.7-3.7c-0.7-1.9-1.6-2.2-5.6-2.1c-2.7,0-7.7,0.8-11.3,1.8c-15.1,4.1-34.9,13.8-39.5,19.3
	c-3.1,3.6-2.8,6.2,1.3,12.1c6.7,9.9,26.7,29.9,33.2,33.2c4.5,2.3,5.7,1.9,12.1-4.2l6-5.7l4.7,1.3c2.6,0.8,7,2,9.7,2.8
	c7.5,2.2,24.5,3,25.9,1.2C605.8,279.4,608,278.9,610.8,278.9z"/>
<path class="st0" d="M714.6,272.1c-0.2-0.2-3.5-1.7-7.4-3.4c-15.4-6.7-25.1-6.9-36-0.8c-8.1,4.5-10.4,4.3-12.2-0.9
	c-1.6-4.7-4-7.6-6.2-7.6c-0.9,0-3.1,1.2-5,2.7c-2.8,2.2-3.6,2.4-5.3,1.4c-1.2-0.7-3.2-1-5-0.6c-3.6,0.8-9.8,6.1-9.8,8.4
	c0,3.6-11.9,12-17.1,12.1c-2.8,0-6.8,4-7.4,7.4c-1.2,6.4,4.9,15.7,13,19.6c4.1,2,4.9,2,12.5,0.9c8-1.1,11-2.6,11-5.5
	c0-1.8,3.1-3.1,9.2-3.9c2.5-0.3,5.2-1.3,5.9-2.1c0.8-1,2.7-1.5,5.3-1.4c6.4,0.3,6.5,0.2,10.6-4.2c3.2-3.5,4.6-4.3,8.7-4.8
	c6.7-0.7,16.1,0.5,18.2,2.4c2.8,2.5,5.7,1.9,8.8-1.9C709,286.7,715.4,272.7,714.6,272.1z"/>
<path class="st0" d="M413.7,310.2c-1,5.6-0.2,5.9,10.4,3.8c11.3-2.2,18.6-2.3,19.8-0.3c0.6,1.1,1.7,1.5,3.6,1.1
	c1.9-0.4,5.1,0.7,11.1,3.7l8.4,4.2l9.6-1.7c5.3-1,14.3-2.8,20.1-4.2c12.7-2.9,16.9-3,22-0.4c4.7,2.4,4.9,1.9,2-6.5
	c-1.1-3.3-1.7-6.8-1.4-8.2c0.4-1.4,4.7-5.9,10-10.5l9.4-8.1l-12.3-12.7c-13-13.6-18.8-21.8-18.9-27.1c-0.1-2.6,0.6-3.9,3.4-6.3
	c4.7-4,25.5-14.9,33.8-17.5c8.2-2.7,13.5-6.2,15.6-10.3c2.1-4,1.5-11-2.1-25.8c-3.3-13.8-6.1-20.6-10.4-25.3l-3.5-3.9l1.8-4.6
	c4.3-11.4,4-19.5-1-29.4c-2.7-5.4-5.4-7.2-9.3-6.5c-1.7,0.4-3.7-0.1-5.3-1.1c-11.6-7.9-12.2-8.1-14.7-7.5c-4.5,1-18.4,8.6-22.4,12.2
	c-3.4,3.1-4.1,3.3-8.3,2.7c-9-1.2-11.1-4.8-4.9-8.5c6.1-3.6,4.7-4.6-7.9-5.4c-4.8-0.4-7.3-1-8.2-2.1c-0.6-0.9-2.5-1.6-4.1-1.6
	c-4.2,0-4.8-1.1-1.8-3.4c4.9-3.9,0.5-7.3-12.6-9.6c-3.5-0.6-7.5-1.4-8.9-1.7l-2.4-0.6l1.8,2.9c1.1,1.6,3.1,4.6,4.5,6.8l2.5,3.9
	l-3.2,2.7c-3.7,3.1-3.9,3.6-1.2,4.3c1.1,0.3,2,1.3,2,2.2c0,3.4,12.5,17.7,20,22.9l2.5,1.8l-3.5-0.7c-4-0.8-10.6-4-11.5-5.5
	c-0.9-1.5-7.4-4.6-11.4-5.5l-3.3-0.7l0.3,5.7c0.3,4.4,0,6-1.2,6.8c-2.3,1.5-8.6,0-9.2-2.2c-0.8-3-13.5-4.4-17.1-1.8
	c-1.6,1.2-1.6,1.9-0.6,7.7c2.2,12-1,23.6-6.9,25c-3.7,0.9-3.6,2.5,0.4,5.6c3.2,2.4,3.6,3.2,3.1,5.8c-1,4.8-5.4,9.6-11.2,12.2
	l-5.4,2.4v5.7c0,3.2-0.7,8.8-1.7,12.4c-1.6,6.5-1.6,6.7,0.6,13c5.9,16.2,5.5,14.5,3.3,18l-2,3.2l2.9,6.1c1.6,3.4,2.9,7.7,2.9,9.5
	c0,5.7,3.5,8.3,19.9,14.7c8,3.2,14.7,5.8,14.8,5.9c0.2,0.1-1.1,2.7-2.8,5.8C420,290.4,414.9,304.1,413.7,310.2z"/>
<path class="st0" d="M83.6,594.5c0.7,2.1,2,2.9,6,3.9c8.6,2,11.7,1.7,15.1-1.5c2.4-2.3,3-3.7,3-7c0-2.8,1-6.2,3-9.8
	c3.5-6.5,3.7-8.7,1.3-12.8c-1.7-2.9-1.7-3.1,1-7.8c3.6-6.5,3.4-9-1.2-16.9c-2.1-3.7-4-7.1-4-7.6c-0.1-0.5,2-1.6,4.6-2.5l4.8-1.6
	v-5.5c0-3.6,0.6-6.4,1.8-8c1.1-1.6,1.7-4.4,1.7-8.5c0-5.9,0.9-8.4,6.1-17.5c2.5-4.4,2-10.2-1.2-13.6c-3-3.2-9.5-3.3-13-0.3
	c-2.1,1.8-3.4,2-9.8,1.7c-5.9-0.3-7.6-0.8-9-2.4c-2.2-2.7-4-3.2-7.9-2.2c-1.8,0.5-3.6,1.6-3.9,2.4c-0.3,0.8,0.2,4.5,1.2,8.1
	c3.8,14-0.7,41.8-9.6,58.5c-2.3,4.4-2.9,6.8-2.7,10c0.2,3,0.7,4.2,1.7,4c2.5-0.5,7.7,1.8,10.4,4.6c2.5,2.6,2.7,3.2,1.8,7.8
	C83.2,578.9,82.5,591.8,83.6,594.5z"/>
<path class="st0" d="M140.7,19.6c-0.6,1.8-0.3,3.3,0.7,4.7c1.3,1.9,1.2,2.1-0.6,2.1c-5.4,0-6.9,3.7-2.7,6.5c3.7,2.5,6.9,1,13.7-6.3
	c3.4-3.6,6-6.2,5.7-5.6c-5.5,11.5-6.8,14.6-7.8,18.2c-0.8,3.3-0.8,5.2,0.1,7.9c1.1,3.5,1.2,3.5,2.3,1.4c1.1-1.9,1.4-2,3.1-0.6
	c1.1,0.8,3.9,1.5,6.3,1.5h4.2l-0.6,5.4c-0.4,3.5-0.3,5.6,0.5,6c2,1.3,1.1,6.3-2.4,13.7c-1.9,4.1-3.5,8.3-3.5,9.4
	c0,2.3,7.5,10.2,8.2,8.8c0.3-0.4,0.8-2.1,1.2-3.6c0.5-2.2,1.1-2.7,2.4-2.2c5.7,2.4,7.1,2.7,9.5,2.2c2.4-0.7,3.3-1.4,6.5-5.2
	c1.3-1.6,11.2-2.2,11.2-0.7c0,0.5-1.3,2.1-3,3.7c-8,7.7-7.4,20.5,1,21.7c1.4,0.2,3,1.4,3.7,2.8c1.9,3.7,1.6,13.6-0.4,17
	c-1.5,2.7-1.5,3,0,5.2c5.1,7,5,6.7,3.7,8.4c-2.7,3.2-5,3.7-7.3,1.6c-4.7-4.4-15.6-3.5-20.3,1.5c-3.3,3.6-3.1,6,0.7,6.8
	c2.2,0.5,2.9,1.1,2.4,2.2c-0.3,0.9,0.1,2.4,1,3.3c1.4,1.5,1.4,2.2-0.2,6.9c-2.4,7.4-8,13.5-15.1,16.1c-3.1,1.2-6.2,2.6-6.9,3.2
	c-1.3,1.1-1.7,6.7-0.7,10.5l0.6,2.1l4.6-2.4c2.8-1.5,5.5-2.3,6.7-1.9c1.1,0.3,4.8,1,8.3,1.5c5.1,0.7,7,1.5,10.2,4.4
	c3.7,3.3,4.1,3.4,7.2,2.4c4-1.3,8.1-4,12.7-8.2l3.3-3.1l-1.5,3c-2.5,4.9-7.5,11.3-10.2,13.1c-1.4,0.9-6,2-10.2,2.5
	c-6,0.7-8.7,1.5-11.8,3.7c-6.5,4.5-24.8,27.3-23.2,28.8c0.4,0.4,3.9-0.7,7.9-2.4c9.9-4.3,11.6-4.5,16.7-2.7c6.6,2.3,7.7,2,10.5-2.8
	c1.4-2.4,3.7-5.3,5-6.6c3.2-3,9.4-3.8,13.3-1.7c1.7,0.8,4.9,1.8,7.2,2.2c3.7,0.6,4.1,0.4,4.1-1.4c0-2.8,1.8-3.1,26.5-4.2
	c22.2-1,26.5-1.7,33.2-5.6c3.9-2.2,8.3-6.7,8.3-8.4c0-0.4-2.6-1.1-5.7-1.4c-11.1-1.3-14.3-4.4-8.4-7.8c1.6-0.9,3.1-2.6,3.3-3.9
	c0.2-1.5,2.4-3.8,6.2-6.4c13.4-9.4,15.5-24.6,4.1-29.6c-6.4-2.8-14.9-2.8-18,0.1c-1.8,1.7-3,2-5.5,1.5c-4.2-0.9-4.7-2.8-1.6-6.8
	c6.6-8.6,3.1-16.4-9.5-21.3c-6.3-2.4-6.6-3-3.7-6.1c3.6-3.9,6.8-9.4,6.8-11.9c0-3.5-3.5-6.9-10.9-10.8c-3.9-2-7.7-4.7-8.6-5.9
	c-1.5-2-5.9-15.4-8.5-25.6c-1.4-5.3-8.4-13.2-15.5-17.2c-4.2-2.4-6.1-2.9-12.3-2.9c-7.4,0-14.9-2.1-13.8-3.9
	c0.4-0.5,2.3-1.5,4.4-2.1c10.3-3.4,18-10.1,9.6-8.6c-1.9,0.4-4.2,1-5,1.3c-3.2,1.2-1.1-1.4,3.8-4.7c6.7-4.6,11.9-11.3,17.3-22.4
	c1.8-3.7,3.2-7.1,4.3-10h-68.1l-2,2.6C146.5,6.4,141.8,15.7,140.7,19.6z"/>
<path class="st0" d="M428.6,414.1c5.2-3.9,10.1-7.6,10.8-8c1.9-1.2,19.1,7.2,24,11.7c4.2,3.8,6.6,9.4,8.2,19.3
	c0.9,6.1,2.7,8.6,17.1,24.2c11.4,12.4,23.4,23.2,29,26.1c1.9,1,6.2,2.3,9.5,3c9.3,1.9,12.8,3.7,17.8,9c2.6,2.7,5.9,5.2,7.4,5.6
	c5.2,1.1,6.8,2.5,9.8,8.2c2.4,4.6,3.9,6.1,8,8.2c3.6,1.8,5.6,3.7,7.4,6.9c2.9,5.2,6.9,16.8,8.2,23.5c0.8,4.5,0.7,5.3-1.7,8.7
	c-2.9,4.3-5.3,10.3-5.4,13.7c0,2.7,3.7,4.6,5.8,2.9c2.7-2.2,7.4-10,9-14.9c1.4-4.4,2.4-5.6,6.2-7.8c3.9-2.3,4.5-3.1,4.8-6.4
	c0.3-3.5-0.1-4.3-5.8-9.6l-6.1-5.9l1.6-3.6c0.8-2,3.8-6.6,6.6-10.1c6-7.5,7.7-7.9,15.5-3.5c4.8,2.8,10.6,8.4,11.7,11.3
	c0.3,1,1,0.8,2.7-0.8c2.1-2,2.1-2.3,0.6-5.2c-2.3-4.5-11.9-11.9-27-20.8c-15.7-9.3-21.3-13.1-22.1-15.2c-0.3-0.8,0.4-2.5,1.7-3.9
	c3.5-3.7,1.3-4.8-10-4.8c-9.4,0-10-0.1-15.6-3.5c-7.6-4.5-13.7-12.3-17.6-22.5c-6.8-17.6-9.8-21.5-20.3-26.6
	c-4.5-2.2-4.7-2.2-6.1-0.4c-2.5,3.4-4.3,1.2-5-6.2c-1.8-18-1.8-20-0.7-20.7c1.4-0.9,1.4-5.8-0.1-10.7c-1.8-6.2-0.4-8,10.2-12.4
	c5.1-2.1,9.9-4.5,10.6-5.3c1.8-1.8,1.8-11.2,0-15.6c-1.2-2.9-2.2-3.6-8.2-5.5c-6.5-1.9-8.3-2.9-14.6-7.4c-3-2.1-10.9-3-15.6-1.8
	c-1.8,0.5-4.9,2-7,3.4c-2.8,1.9-4.6,2.4-7.3,2c-3.4-0.5-3.7-0.3-4.4,2.5c-0.3,1.7-1.7,3.8-3.1,4.6c-1.3,0.9-2.4,2.5-2.4,3.6
	c0,2.6-4,4.5-7.5,3.6c-1.5-0.4-3.8-1.8-5.3-3.3l-2.6-2.6l-2.7,3.1c-2.6,2.9-4.9,8.7-4.9,12.4c0,3.2-2.5,1.9-9.2-4.7
	c-7.4-7.4-9.8-8.2-9.8-3.2c0,4.9-2.7,6.7-12.7,8.9c-4.8,1-9.2,2.3-9.7,2.8c-0.7,0.7-0.3,2.5,1.2,5.5c1.2,2.5,2.2,5.2,2.2,5.9
	c0,0.8-1.8,2.9-4,4.6c-2.2,1.7-4,3.6-4,4.1s1.3,3,3,5.7l2.9,4.7l-2.1,1.7l-2.2,1.6l2.6,3.9c2.5,3.8,7.9,7.3,11.1,7.3
	c2.1,0,3.8,2.5,3.1,4.4C414.8,423.2,419.3,421.2,428.6,414.1z"/>
<path class="st0" d="M272.9,505.6c3.6-6.2,7.1-8.5,21.5-13.7c11.1-4,20.8-10.1,24.8-15.5c3.5-4.7,3.5-15-0.1-15
	c-0.7,0-1.8,0.9-2.4,2c-0.9,1.7-2.1,2-7.8,2c-4,0-7.9-0.6-9.6-1.5c-1.6-0.9-4.5-1.4-6.5-1.3c-3.1,0.3-3.6,0-4.5-2.7
	c-0.6-1.7-1.5-3.3-2.1-3.7c-0.5-0.4-5.7-0.8-11.5-0.8c-21.7,0-36.5-3.3-43.9-9.7c-6-5-11.1-6-41-7.3c-23.9-1.1-35-2.3-44.6-4.9
	c-2.2-0.6-9.7-1-16.6-1c-10.8,0-13.4-0.3-17.2-2c-5.6-2.6-10.1-2.7-14.7-0.3c-2.2,1-3.6,2.6-3.8,3.9c-0.5,3.6-4.8,6.3-10.2,6.3
	c-4.7,0-6.9,1.4-8.3,5.2c-0.3,1,0.7,4.2,2.5,7.5c1.8,3.2,3.7,8.5,4.3,11.8l1.1,6h6c4.7,0,6.3,0.4,8.1,2.2c3.3,3.3,9.8,3.9,15.3,1.4
	s14.2-2.8,16.4-0.5c0.9,0.8,1.6,2.6,1.6,3.9c0,1.2,0.9,3.3,1.9,4.6c2.2,2.8,1.8,4.4-3.5,12.4c-3.2,4.7-3.8,6.6-4.4,13.3
	c-0.4,4.8-1.4,8.8-2.5,10.5c-1.1,1.7-1.5,3.7-1.2,5.5c0.6,3.1-2,9.9-4.6,12.1c-2.3,1.9-2.1,4.5,0.6,8.9c3.8,6.1,3.9,6.9,0.6,13.1
	l-3.1,5.9l2.1,4.7c2.7,6,2.6,6.7-0.3,9.4c-1.4,1.3-3.2,3.9-4.1,5.8c-1.5,3.1-1.5,3.6-0.1,5.9c0.9,1.3,4.2,3.7,7.4,5.3
	c7.1,3.6,9.7,6.4,16.1,17.3c5.1,8.7,9.9,13.5,12.6,12.4c0.8-0.3,2.1-2,3.1-3.8c2.6-5.2,5.3-7.6,10.3-9.2c7.2-2.4,22.3-4.5,37.1-5.2
	c15.9-0.8,18.3-1.6,24.5-8.9c5.3-6.2,10.8-10.2,15.9-11.6c2.7-0.7,3.7-1.7,4.2-3.7c1.2-4.8,4.2-9.9,10-16.7c6.5-7.7,6.6-8.8,1.4-20
	l-3.2-7l9.7-14C265.6,517.2,271.3,508.5,272.9,505.6z"/>
<path class="st0" d="M787.5,503.2c3.5-0.3,3.7-0.5,3.5-3.8c-0.1-1.9-0.8-3.9-1.7-4.6c-0.9-0.6-5.5-1.4-10.3-1.7
	c-4.9-0.4-12.6-1.8-17.2-3.2c-9.6-2.8-12.7-3-19.1-0.9c-2.5,0.8-7.8,1.8-11.9,2.3c-5.7,0.7-7.8,1.4-9,3c-1.2,1.5-3.4,2.3-8.4,3
	c-6.4,0.9-12.1,3.4-14.7,6.6c-0.8,0.9-3,1.5-5.5,1.5c-5.9,0-7.5,0.8-7.5,3.6c0,1.3-1.3,3.8-2.9,5.7c-1.6,1.8-3.3,4.8-3.8,6.7
	c-0.7,2.4-1.6,3.6-3.4,4c-2.2,0.6-2.4,1.1-2.3,6.2c0.2,8.8,5.8,17.2,12.6,18.8l3.3,0.8l-3.2,0.7c-4.9,1.1-5.7,2.6-3.8,7.1
	c2.4,5.8,3.7,6.3,15.7,6.4c5.9,0,13.1,0.5,16,1.1c6.8,1.4,22.3,8.9,27.5,13.4c2.2,1.9,4.3,3.2,4.6,2.9c1-1-1.2-7.5-3.6-10.7
	c-2.5-3.2-6.9-6.5-19.2-14.3l-6-3.7l3.3-0.9c3.3-0.9,3.3-0.9,1.7-3.4c-0.9-1.4-1.5-3.5-1.3-4.7c0.3-1.9,0.9-2.2,4.6-2
	c3.5,0.2,4.3-0.1,4-1.4c-0.2-0.9-1.7-2-3.5-2.5c-3.1-0.8-3.4-1.3-4.8-7.2c-0.3-1.7-1.5-4.2-2.6-5.7c-1-1.5-1.9-3.7-1.9-4.8
	c0-2.5,2.1-7.7,4.3-10.6c1.5-1.9,1.6-1.9,2.3,1c1,4.4,3.3,6.5,7,6.5c6.1,0,8.1-1.4,8.8-6.3c0.4-2.5,1.6-5.3,2.7-6.2
	c2.3-2.2,18-5.4,26-5.5c3,0,7.9,0.7,10.8,1.6C781.5,502.8,785.5,503.4,787.5,503.2z"/>
<path class="st0" d="M516.2,19.9c1.8,2.8,3.6,7,3.9,9.6c0.8,5.1-0.6,12.8-2.5,13.9c-0.8,0.6,0,3.1,3.1,9.3c2.9,5.8,4,9.2,3.5,10.6
	c-0.8,2.7,0.2,5.8,2.1,6.5c1.7,0.7,17.2-3.1,19.2-4.6c0.6-0.6,1.2-2.9,1.2-5.3c0-8,2.8-12.5,7.8-12.5c1.3,0,2.4-1.1,3.1-3.1l1.1-3.1
	l10.5,0.7c12.2,0.8,12.3,0.8,16.5-7.5c3.5-6.9,5.6-14.2,7-24c0.4-2.9,1.1-6.9,1.7-10.4h-88.9c0.5,0.9,0.9,1.9,1.4,2.8
	C510.2,9.5,514.4,17.1,516.2,19.9z"/>
<path class="st0" d="M643.1,438c1.3,0.5,1.5-0.1,1.3-3.3c-0.2-3.6,0-3.8,2.8-4.1c5.6-0.5,5.9-0.9,3.5-4.6c-1.4-2.4-2-4.8-1.8-7.6
	c0.1-3-0.3-4.5-1.4-5.1c-3.4-1.9-2.9-10.9,0.7-10.9c1.6,0,3.1-4.2,2-5.9c-0.4-0.7-2.2-0.9-4.4-0.5c-2.8,0.4-4.9,0-7.9-1.5
	c-5.3-2.7-10.4-3.7-27.5-5.6c-18.3-2-17.6-2-18.8,1.5c-0.6,1.6-1.3,3-1.5,3c-0.3,0-1.8-1.6-3.5-3.5c-3-3.4-4.8-4.2-6.2-2.8
	c-1.4,1.4-0.6,5.6,2.2,11.2c5,9.8,16.6,26.3,22.5,31.9c3.1,3,5.6,6.2,5.6,7.1c0,3.3,5.8,9.9,13.1,15.1c4,2.7,7.8,5,8.4,5
	c0.9,0,1.1-1.3,0.8-4.4C632.2,445.8,638.6,436.3,643.1,438z"/>
<path class="st0" d="M644.8,467.2c1,0.2,3.6-1.7,6-4.4c2.4-2.5,5.4-5,6.6-5.5c5.1-1.9,16.9,4.7,18,10.2c0.3,1.7,1.2,3.3,2,3.6
	c0.8,0.3,4.4-0.8,8.1-2.5c4.9-2.3,9.3-3.4,16.2-4.2c11.3-1.2,13.1-2.6,12.3-9c-0.5-3.7-0.2-4.3,4.1-8.5c4.9-4.9,5.5-6.2,3.1-7.1
	c-2.4-0.9-7.2-9.1-8.5-14.3c-1-4.1-0.9-5.4,0.4-8c1.8-3.4,2.1-11.8,0.6-14.1c-0.9-1.3-1.4-1.1-3.3,1.2c-1.3,1.6-2.6,2.8-2.9,2.8
	c-0.4,0-3.6-2-7.1-4.5c-4.4-3-6.8-5.5-7.6-7.7c-2.5-6.6-4.3-9.4-8.4-12.4c-3-2.3-4.7-4.5-5.9-8c-1-2.9-3.4-6.5-5.8-8.9
	c-3.6-3.5-4.6-4-8.8-3.9c-6,0-15.4,2.1-17.8,3.9c-1.8,1.3-1.8,1.5-0.1,8.1c1.5,5.8,1.5,7,0.4,8.2c-2.4,2.4-4.7-1.1-4.7-7.2
	c0-5.1-1.2-7.6-3.6-7.6c-0.6,0-1.4,0.9-1.7,2c-1.2,4.6-13.4,1.2-30.7-8.5c-13-7.2-16.8-8.3-21.7-6.1c-3.9,1.8-5.7,4.9-4.9,8.7
	c0.7,3.4-0.1,5.9-1.9,5.9c-0.7,0-2.5,2-4,4.6c-4,6.8-10.7,8.2-14.7,3.1c-1.4-1.8-1.9-1.9-3.2-0.8c-2.5,2.1-1.9,5.6,1.9,10.2
	c4.4,5.2,5.1,6.4,5.9,11c0.4,2.2,2.3,5.5,4.7,8.3c3.6,4.1,4,5,3.5,8.1c-0.6,3.1-0.3,3.9,3.7,7.8c6.5,6.6,12.4,9.6,20.3,10.6
	c3.8,0.5,7,0.8,7,0.7c0.1,0-3.9-6-9-13.2c-9.6-13.7-15.6-24.6-15.6-28.3c0-1.2,0.5-3.1,1-4.2c1-1.7,2.2-1.9,11.8-1.9
	c17.8,0,42.6,2.7,48.5,5.2c2.8,1.2,5.2,1.8,5.4,1.3c1.6-5,4-8,6.3-8c3.5,0,3.9,3.2,0.5,4.5c-2.2,0.8-2.4,1.3-1.5,2.9
	c0.5,1.1,1.5,2.3,2,2.6c1.5,0.9,1.1,6.7-0.5,8.9c-2.6,3.4-1.8,6.7,2.8,11.4l4.2,4.3l-3.5,2.9l-3.5,2.8l2.8,2.6
	c2.3,2.1,2.6,2.9,1.7,4.6c-0.6,1.2-2.1,2-3.5,2c-1.6,0-3.3,1.2-5.1,3.5c-1.8,2.4-3.4,3.5-4.7,3.3c-1.6-0.2-2.3,0.5-2.9,3.1
	c-0.6,2.1-1.7,3.5-3,3.9c-1.7,0.4-1.9,1-1.4,4.5C635.9,456.3,642.4,466.7,644.8,467.2z"/>
<path class="st0" d="M740.7,641.2c0,1.2,4.6,2.7,10.7,3.6c2.3,0.3,6.3,1.7,8.9,3.1c8.3,4.4,21.9,2.5,16.1-2.3
	C773.5,643.2,740.7,639.1,740.7,641.2z"/>
<path class="st0" d="M653.3,510.1c0.8,2.1,1.4,5,1.4,6.5c0,1.9,1,3.3,3.3,4.9c4.4,3,6.7,6,6.7,8.6c0,1.3,0.4,2.3,0.9,2.3
	c1.6,0,7.7-7.8,11.1-14.1c1.7-3.3,3.8-6.3,4.6-6.6c2.2-0.8,1.7-2.7-2.8-11.4c-4.2-7.9-4.3-8.4-4.3-17.7c0-7-0.5-10.5-1.7-12.7
	c-3.5-6.5-11.1-11-15.9-9.3c-4.2,1.4-5.4,5.5-3.5,11.9c2,6.5,2.1,24.8,0.2,30.1C652.2,505.6,652.2,506.9,653.3,510.1z"/>
<path class="st0" d="M724.5,589.3c5.6,2.6,10.5,2.5,11-0.3c0.3-1.5,0-1.8-1.8-1.3c-1.6,0.4-3.3-0.4-6.3-3.2
	c-6-5.3-10.5-8.5-16.2-11.3c-6.8-3.5-8.7-3.9-11-2.6c-1.1,0.6-4.4,2.9-7.3,5.1l-5.2,4l6,6.3c5.8,6,7.1,8.6,5,9.9
	c-1.5,0.9-1.2,6.1,0.4,7.4c1.1,1,2,1,3.6,0.1c3.1-1.7,4.6-0.7,7.5,5c1.4,2.7,2.9,5,3.3,5c0.5,0,1.6-1.7,2.6-3.7l1.8-3.8l1.9,2.4
	c1.1,1.3,2.5,2.1,3.4,1.7c2.4-0.9,1.8-7.1-1.6-14.8c-1.7-3.8-2.8-7.2-2.5-7.6C719.4,587.3,721.9,588.1,724.5,589.3z"/>
<path class="st0" d="M392.8,340.7c-0.8,2.4-2.3,4.3-4.2,5.2c-5.1,2.7-3.2,4.9,4.1,5c3.9,0,4.7,0.4,6.5,3.3
	c6.3,10.2,5.7,9.7,11.2,9.7c6.3-0.1,9.9-1.9,11.2-5.6c1-2.8,6.3-6.9,8.9-6.9c0.7,0,1.9,1.5,2.7,3.3c0.8,1.9,2.1,3.9,2.9,4.6
	c2.3,1.9,5.9-0.7,9.7-6.9c1.7-2.8,3.6-5,4.2-5c0.7,0,2.3,0.9,3.7,2c1.4,1.1,3,2,3.5,2c1.5,0,8.1-5.6,10.5-9l2.1-3l-4.5,0.6
	c-4.2,0.6-4.8,0.4-8-2.8c-3.3-3.3-5.6-8.9-5.6-13.6c0-1.3-0.5-3.2-1-4.3c-1.2-2.1-5.7-2.3-18.5-0.8c-11.4,1.4-18.7,3.1-23.5,5.4
	C403,326.8,394.4,335.8,392.8,340.7z"/>
<path class="st0" d="M751.5,5.6c-3.7,6.3-10.3,9.6-15.6,7.9c-5.2-1.6-6.5-2.9-9.6-8.9c-0.8-1.6-1.7-3.1-2.8-4.6h-29.1
	c-0.5,1.4-0.9,3-1.2,5c-0.3,3-2.3,9.7-4.3,14.7c-2.5,6.6-3.7,11.3-4.1,16.6l-0.5,7.5L689,41c11.8-6.8,14.1-7.6,22.8-7.6
	c4.6,0,15.7,0.7,24.6,1.6c16.2,1.6,16.2,1.6,20.3-0.5c2.2-1.1,4.2-2.1,4.5-2.1c0.2,0,2.5,1.8,5,4c2.5,2.2,5.3,4,6.1,4
	c3,0,7.9,3.4,15.5,10.6c4.3,4.1,8.2,7.4,8.7,7.4s2.2-1,3.6-2.1c1.8-1.4,4.9-2.4,8.9-2.8c3.4-0.4,7.3-1.4,8.7-2.4
	c3.3-2.3,8.9-9.5,9.6-12.4c1.4-5.5-2.5-17.1-6.5-19.3c-1.8-0.9-1.9-1.8-1.4-9.9l0.6-8.9L819.2,0h-65.4C753.4,2,752.8,3.4,751.5,5.6z
	"/>
<path class="st0" d="M112.1,79.9c4.5-9.3,3.5-9.9-8.2-4c-9.9,5-10.2,5.3-13.6,12c-2.9,5.7-2.1,6.3,6.7,4.7
	C104.2,91.2,108.1,87.9,112.1,79.9z"/>
<path class="st0" d="M110.5,112.8c2.6-3.9,8.7-10.4,9.7-10.4c0.7,0,1.8,1.4,2.5,3.1c1.6,3.9,7.5,7.9,11.7,7.9c1.9,0,4.3-1,6.1-2.5
	c5.3-4.4,7.8-14.5,3.6-14.5c-1.7,0-3-2.9-3.9-8.4c-0.4-2.6-1.8-5.1-4-7.3c-3.4-3.4-6-4-10.3-2.3c-5.7,2.3-20.1,14.6-23.7,20.3
	c-1.7,2.7-1.7,2.8,0.9,6.5C107.8,111.7,109.8,113.8,110.5,112.8z"/>
<path class="st0" d="M333.7,436.5c8.5-4.6,13-4.3,31,1.5c8,2.6,15.7,4.9,17.1,5.1c3.4,0.6,6.9-1.2,15.5-8.4
	c3.9-3.2,8.5-6.6,10.2-7.5c3-1.6,7.2-7.1,7.2-9.3c0-0.7-1.4-0.9-3.4-0.7c-2.6,0.3-4.1-0.3-7-2.9c-4.9-4.2-6.6-7.8-6.6-13.6
	c-0.1-2.6-0.7-5.9-1.5-7.3c-2.2-3.8-1.8-4.7,2.6-7.7c4.5-3,4.5-3,0.8-12.6c-1.8-4.8-2-6.3-1.1-7.8c1.7-2.7,1.5-4.9-1-8.6
	c-2.9-4.2-4.9-4.1-11.8,0.2c-3,1.8-5.6,3.2-5.8,3.1c-0.1-0.2,0.7-1.9,1.8-3.9c1.4-2.3,1.9-4.4,1.5-6c-0.5-2,0-3,2.8-5.1
	c1.9-1.5,3.8-3.8,4.1-5.1c0.4-1.4,2.7-4.8,5.2-7.6c2.4-2.8,4.7-6.3,5.1-7.9c0.3-2,1.4-3.2,3.3-3.9c3.4-1.1,4.9-3.8,8.3-14.8
	c1.5-4.4,3.8-11,5.2-14.5c3.6-8.4,4.4-11.4,3.6-12.4c-0.3-0.5-3.3-1.9-6.6-3c-3.3-1.2-11.4-4.4-18.1-7.2c-6.6-2.7-14.7-5.6-18-6.3
	c-4.1-0.9-8.3-3-13.9-6.8c-8.9-6-13.2-8.1-16.9-8.1c-3,0-3.9-1.2-4.6-6.5c-0.5-3.7-0.7-4-4.7-4.7c-5.6-0.9-9.8-4.2-12.4-9.5
	l-2.1-4.3l-4.9,0.6l-5,0.7l-1.6-4.2c-1.4-3.6-2-4.1-4.7-4.1c-1.7,0.1-4.8,0.9-7,2c-4.8,2.4-6.5,4.7-6.6,8.6
	c-0.1,11.1-6.6,19.8-20.5,27.2c-8.4,4.5-9,5.1-9.3,8.3c-0.5,5.3-1.6,5.9-10.1,5.9c-10.2,0-17.5-2-20.2-5.4c-1.1-1.5-3.8-3.6-6-4.6
	c-4.5-2.3-4.8-1.8-2.4,4.9c0.8,2.4,2.2,8.2,3,12.9c0.9,4.8,1.9,9.5,2.1,10.4c0.5,1.5-0.1,1.8-3.8,1.8c-4.5,0-14.7,1.4-18.5,2.6
	c-1.7,0.5-3.3-0.5-7.6-4.5c-5.8-5.5-6.8-5.9-8.8-3.5c-2.3,2.8-7.2,4.7-14.8,5.5c-4.4,0.5-8.1,1.5-9,2.4c-1.4,1.4-1.2,1.8,2.3,4.7
	c3.8,3.1,3.8,3.2,3.3,9l-0.5,5.8h3.3c1.8,0,7.1,1.6,11.7,3.6c4.5,2,11.5,4.4,15.3,5.3c6.5,1.6,7,1.9,7,4.5c0.1,1.9,1.4,3.9,4.3,6.6
	c3.3,3.1,4.2,4.6,4.2,7.3c0,5.2,4.8,11.5,13.2,17.3l7.3,5l-0.3,7c-1,23.8-4.6,49.1-9.1,63.4c-2.6,8.3-2.6,8.7,0.4,9.4
	c1.8,0.5,2.5,1.3,2.5,3.1c0,5.4,12.7,9.5,29.3,9.5c18.2,0,28.2,2.2,34.6,7.6c3.9,3.2,10,4.1,15.6,2.2c4.2-1.4,5.8-3.6,7.5-10.5
	C321,445.5,325.6,440.8,333.7,436.5z"/>
<path class="st0" d="M433.8,11.4c-6.5,4.8-7.4,7.4-7.9,24.6c-0.7,21.4,0,25.5,4.8,30.3c3,3,4,4.8,4.5,8.7c0.4,2.7,0.9,5.7,1.2,6.7
	c0.7,2.7,4.5,4.7,9.9,5.3c3.9,0.4,5.6,0.1,8.3-1.6c2.3-1.4,3-2.4,2.2-2.9c-4.5-2.8-3.9-24.1,0.8-25.4c1.1-0.2,2.1-1.5,2.3-2.8
	c0.2-1.5,1.2-2.5,2.8-2.9c2.1-0.5,2.6-1.3,3.1-5c0.7-4.9,4-8.4,7-7.5c1.8,0.6,6.9-3.3,6.9-5.3c0-0.5-1.8-1.2-3.9-1.6
	c-5.9-0.9-8.1-4.3-8.1-12.2c0-3.6,0.9-9.7,2-13.6c0.7-2.5,1.2-4.5,1.5-6.2h-14.8c-5.4,4.9-8.1,6.3-13.2,7.4
	C440.3,8,436,9.8,433.8,11.4z"/>
<path class="st0" d="M53.9,188c1-0.3,4-0.8,6.8-1.2c4.7-0.6,5-0.5,5,1.6c0,1.3,0.8,2.4,2,2.7c1.4,0.4,2,1.4,2,3.4
	c0,2.3,0.4,2.9,2.3,2.9c3.1,0,14-5.3,16.6-8.1c1.5-1.7,3.1-2.2,5.5-2.1c2.7,0.2,4.4-0.6,8.1-3.8c5.5-4.7,6.9-5.5,11.5-6.5
	c1.9-0.4,4.5-1.6,5.6-2.7c2.1-1.9,2.4-1.9,5.4-0.3c4.2,2.1,5.3,1.1,8.1-7.3c5.7-17.3,2.4-41.7-7.1-52.7c-2.1-2.5-4.2-5.5-4.6-6.7
	c-0.6-2.1-1-1.9-6,3.7l-5.3,5.9l-6.2-6.7c-6.1-6.7-10.3-9.7-13.5-9.7c-1.4,0-1.6,0.8-1.1,4.6l0.5,4.7L83,109c-6-0.6-6.5-0.5-7,1.4
	c-0.5,2-0.6,2-2.9-0.5c-2.7-2.9-5.5-3.2-9.4-0.9c-2.7,1.7-6,6.2-6,8.3c0,0.6,1.3,1.1,2.9,1.1c7.8,0,8.2,3.9,1.1,11
	c-2.7,2.8-5,5.5-5,6c0,2.2,5.3,4.2,13.4,5c4.7,0.5,9.1,1.2,9.7,1.5c1.8,1.2,0.6,3.1-4.1,6.7c-3.4,2.6-4.6,4.1-4.8,6.6
	c-0.3,2.7,0.1,3.4,2.3,4.2c1.4,0.6,4,1,5.8,1c4,0,2.7,1.1-4.8,3.9c-8.7,3.2-10.5,4.6-10.5,8.2c0,4.2-2.2,8.1-7.2,12.4
	C54.1,186.9,53,188.3,53.9,188z"/>
<path class="st0" d="M899.7,490.6c-2.2,1.5-4.1,3-5.6,4.6l-4.4,4.7l-8.8-1.3c-10.7-1.6-28.5-2.6-30.7-1.8c-3.7,1.5,5,8.7,10.5,8.7
	c3.9,0,1.9,1.9-4.2,3.9c-8.2,2.8-9.8,3.8-7.9,5c2,1.3-1.6,1.7-22.4,3c-20.7,1.2-28.7,3.2-33.5,8.7c-2.5,2.9-3,4.3-2.8,7.2l0.3,3.7
	l7.8-0.2c4.2-0.2,7.7-0.1,7.7,0.2c0,0.2-0.9,1.9-2,3.8l-2.1,3.5l3.6,4.2c1.9,2.3,3.5,4.5,3.5,4.9c0,0.4-1.1,2.2-2.5,4.1
	c-1.4,1.9-2.5,3.5-2.5,3.7s1.2,1.5,2.6,2.8c1.5,1.4,2.2,2.5,1.6,2.5c-1.7,0-4.2,3-4.2,5.2c0,1.4,1.2,2.4,4,3.5c3.4,1.4,4,2.1,4,4.5
	c0,1.6-0.6,3.1-1.5,3.4c-2.4,0.9-1.8,2.4,3,7.5c2.4,2.6,4.7,5.8,5,7.1c0.6,2.3,0.9,2.4,5.3,1.7c7.6-1.3,8.1-1.1,13.1,3.6
	c2.7,2.5,5.8,4.5,7,4.5c1.4,0,2.8,1.1,3.9,3.1c5,9.2,10,11.8,18.2,9.3c4.9-1.4,11-6.9,11-9.9c0-3.2,2.4-6.5,4.7-6.5
	c3.6,0,11,2.6,18.3,6V490.6z"/>
<path class="st0" d="M554.2,575.9c-11.3,1.2-13.8,1.2-19,0c-7.7-1.8-10-1.8-11.5,0c-0.8,0.9-2.6,1.5-4.6,1.3c-1.9-0.1-4,0.4-4.6,1.1
	c-3,3,15.4,15.4,27.7,18.6c6.6,1.7,9.8,3.5,12,6.9c0.9,1.3,3,3,4.6,3.6c2.6,1.1,3.4,1,5.7-0.7c3.4-2.5,3.8-5.1,1.8-11.1
	c-1.7-5.2-1.2-8.2,2.8-15.7C572.4,573.7,572.8,573.8,554.2,575.9z"/>
<path class="st0" d="M526.7,98.4c0,0.6,0.7,2.6,1.4,4.5c1.6,3.7,3.8,3.9,5.6,0.5c0.8-1.5,0.4-2.3-1.6-3.9
	C529.2,97.2,526.7,96.8,526.7,98.4z"/>
<path class="st0" d="M429.3,544.7l3.9,3.4c2.1,1.8,4.5,3.3,5.2,3.3c0.8,0,2.6-1.4,4-3.1c1.4-1.6,3.2-2.8,3.9-2.5
	c2.9,1.1,6.5-8.1,7.9-20.2c1.2-10.7-4.6-26.2-9.8-26.2c-1.2,0-5,1.4-8.4,3.1c-5.9,2.8-6.3,3.2-6.3,6.4c0,1.9,0.7,6,1.5,9.2
	c1.9,7.4,1.9,12.9-0.2,20.5L429.3,544.7z"/>
<path class="st0" d="M446,457.4c-2.2,0.1-4.9,0.9-6.5,2.1c-2.1,1.5-2.8,2.9-2.8,5.4c0,6.4,2.2,19,3.6,20.4c1.2,1.3,1.7,1.2,4-1
	c6-5.6,9.5-17.3,7-23.3C449.9,457.8,449.4,457.4,446,457.4z"/>
<path class="st0" d="M552.2,375.4c2.3-2.5,4.6-2.5,9.6,0.1c5.1,2.5,6.3,2.1,6.3-2.2c0.1-2.9,0.6-3.6,3.9-5.1c2-1,3.7-2.4,3.8-3.1
	c0-0.6,0.1-2.7,0.2-4.6c0.2-3,1-4.1,6-7.9c12.2-9.3,9.5-12.7-6.2-7.7c-6.8,2.2-18.4,4.5-31,6c-9.6,1.3-11.3,5.8-6,16.3
	C543.5,376.6,548.4,379.6,552.2,375.4z"/>
<path class="st0" d="M814.7,473c3.3,2,5.6,1.4,7.1-2c1.6-3.4-0.8-8.1-4.1-8.1c-3-0.1-3-2.6,0.1-6.5c1.8-2.2,4.3-7.2,8.4-16.8
	c1-2.2,2.9-3.9,5.9-5.4c6.4-3.1,7-6.7,1.2-6.8c-1.1,0-6.5-2.1-12-4.8c-9.3-4.3-10.7-4.7-17.6-4.7c-7.1,0-7.9,0.2-16.5,5l-9,5
	l-17.5-0.1c-26-0.1-37.3-2.4-37.7-7.4c0-1.4-0.1-3.1-0.2-3.8c-0.1-1.8-2.5-1.5-5.5,0.9c-1.8,1.4-2.6,3-2.6,5.2
	c0,4.2,5.4,13.5,9.1,15.5c4.7,2.7,3.6,9.2-1.7,9.2c-3.1,0-4.1,1.7-4.8,9c-0.8,8.1,0.4,12.1,4.9,17.1c3.5,3.9,3.9,5,3.5,10.1
	c-0.1,2.1,0.5,3.1,2.4,3.9c2.1,1,4.2,0.8,11.1-0.9c11-2.8,14.8-2.8,23,0.3c8.6,3.3,17.4,3.5,23.8,0.7c3.5-1.5,5.1-3.1,7.2-7
	C797.7,472.4,807.6,468.9,814.7,473z"/>
<path class="st0" d="M896.7,113.7c-5.1-5.8-13.1-21.8-13.2-26.3c0-1.9,0.3-5.5,0.7-8c1.2-8.1-4.7-17.3-14-21.6
	c-6.1-2.9-8-3-11.2-0.4c-4.1,3.2-6.3,2.7-6.3-1.5c0-4.4-3.5-7.1-8.2-6.1c-2.4,0.5-3.4,0.2-4.5-1.4c-1.1-1.5-2.1-1.8-4-1.4
	c-1.9,0.5-3,0.2-3.9-1.1c-1.2-1.6-1.7-1.3-6.6,3.3c-7.2,6.7-9.1,7.6-14.9,6.8c-4.5-0.6-4.9-0.5-7.3,2.7C800,63,799,67.8,800.7,71
	c1.7,3.1,0.3,7.7-2.5,8.2c-5,1-14.5,11.3-14.5,15.8c0,1.2-1.1,3.6-2.5,5.2c-1.9,2.3-2.4,3.7-1.9,5.9c0.6,2.9,0.4,3-3.5,3.7
	c-6.7,1-12,3.6-13.3,6.4c-1.6,3.3-5.7,4.4-13.1,3.8c-8.1-0.8-9.7,0.3-9.7,6.4c0,2.7,0.7,7.9,1.6,11.7c0.9,3.7,1.7,10.2,1.7,14.4
	c0.1,8.8-1.5,12.2-6,13.4c-6.9,1.7-7.1,5.6-0.7,11.4c4.4,4,4.6,4.4,4,8.3c-1.1,7,2.5,8.7,9.2,4.3c5.5-3.6,11-4.4,27.9-4.5
	c16.9,0,29.2,1.8,33.5,5c4,3,9.3,3.8,32.3,5.5c25.8,1.8,26.7,1.9,29.8,5.1c2.8,2.8,2.9,2.8,4.2-5.1c1.4-8,6.8-14.2,15-17.2
	c4.7-1.7,5-2.1,5.3-5.8c0.3-3.9-0.6-8.8-3.5-18.2c-0.8-2.9-1.3-6.3-0.9-7.6c0.7-2.9,3.3-4.3,6.6-3.7v-25.8
	C898.9,116.4,897.8,115,896.7,113.7z"/>
<path class="st0" d="M474.3,337.3c3.3,2.6,5.4,2.6,9.6,0.1c3.3-1.9,15.8-5.2,20.7-5.4c1.8-0.1,3.3,1,5.5,4.1c3.7,5,8.4,7.4,19.1,9.8
	c11.9,2.6,22.9,2.4,36.1-0.7c20.4-4.8,26.3-9.1,26.5-19.3c0.2-8.2,0.9-9.8,6.3-12.3l4.9-2.4l-0.6-6.1c-0.8-7.9-3.3-16.3-5.6-18.6
	c-1.1-1.1-4-2-7.7-2.4c-3.2-0.3-8.6-1.5-11.8-2.7c-9.2-3.2-12.2-2.8-18.6,2.5c-6.3,5.2-8.5,6-12.4,4.6c-5.5-2.1-7.8-1.3-16.4,5.4
	c-9,7.1-9.4,8-6.7,15.5c1.8,5.2,1.9,9.7,0.3,10.3c-0.7,0.2-2.9-0.2-4.8-1c-4.8-2-10.4-1.8-20.2,0.6c-4.6,1.1-12.3,2.8-17.3,3.6
	c-4.9,0.9-10.3,1.9-11.8,2.2c-1.7,0.3-4.4-0.2-6.7-1.2c-5.5-2.5-7-1.6-7,4c0,3.6,0.6,5.2,2.6,7.2c2.6,2.6,3.1,2.6,10.6,0.8
	C470.9,335.4,472.3,335.8,474.3,337.3z"/>
<path class="st0" d="M511.2,61.4c2.8-0.5,3-0.9,2.9-4.7c-0.1-4.7-2.6-9.3-5.2-9.2c-0.9,0-3.3,0.6-5.2,1.3c-5.9,2.2-15.5,7.3-17,9.1
	c-1.1,1.4-1.1,2.4,0.4,6.5c1,2.7,1.5,5.3,1.2,5.9c-1.3,2,17.4,15.4,19.1,13.7c0.3-0.3-0.2-1.7-1.1-3c-2.2-3.5-2-4.3,1.4-6.1l3-1.6
	l-2.2-2.9C505.6,66.4,506.8,62.2,511.2,61.4z"/>
<path class="st0" d="M690.9,469.5c-1.2,1.2-2.5,2-2.8,1.6c-1.5-1.4-6.2,2.5-8.8,7.3c-3.3,6.1-3.6,10.4-1.2,15.7
	c2,4.5,5.6,7,10.6,7.3c6.6,0.5,8.7,0,13.4-3.2c2.9-1.8,6.9-3.5,10-3.9c9.2-1.5,12.4-9.4,7.3-18.3c-3.3-6-7.5-7.9-17.7-8.4
	C693.6,467.2,692.8,467.3,690.9,469.5z"/>
<path class="st0" d="M799.7,508.4c3.1,1.7,5.8,0.7,11.8-4.4c6.3-5.4,9.8-6.5,24.5-7.4l11.2-0.8l-6.5-3.1c-7.5-3.6-9.6-5.3-13.6-10.8
	c-3.7-5.1-4.4-5.6-7-5c-1.1,0.2-3.7-0.4-5.7-1.5c-4.3-2.3-7.9-2.5-12.4-0.5c-4.4,1.9-6.7,5.6-5.8,9.5c0.5,2.1,0.2,3.9-0.9,5.5
	C791.9,495.1,794.4,505.5,799.7,508.4z"/>
<path class="st0" d="M879.9,351.8c1.2-3.5,1.9-4.1,6.8-5.8c3.3-1.1,8.5-1.9,13-2V181.5c-6.7,0.2-13.6,2.7-16.3,6
	c-1.9,2.2-2.7,4.6-3.2,9.7c-1.2,11-3.6,13.2-7.4,6.7c-2.1-3.6-2.3-3.6-6.9-3c-3.5,0.5-6.2,0.1-10.9-1.6c-6.1-2.1-6.3-2.1-9.6-0.3
	c-2.8,1.5-3.9,1.6-6.9,0.6c-1.9-0.6-8.3-1.6-14.2-2.1c-9-0.8-11.6-1.4-15.9-3.9c-2.9-1.6-7.5-3.4-10.3-4c-8.7-1.8-25.4-2.4-34.4-1.2
	c-7.1,0.9-9.3,1.7-13.6,4.6c-2.8,1.9-5.6,3.5-6.2,3.5c-2,0-3.4,4.1-2.8,8.2c0.4,2.2,2.1,6.7,3.8,10.1c2.5,5,3.1,7.3,3,12
	c-0.2,7-0.3,7.2-4.8,9.3c-3.7,1.8-14.7,13.1-19.6,20.2l-3,4.4l1.6,6.3c2.4,9.7,2.3,10.5-1.8,9.8c-3.1-0.5-3.7-0.2-5.5,2.7
	c-4.6,7.6-3.1,16.4,3.5,20.2c5.2,3,18.1,5.8,26.9,5.8s14,1.3,14.9,3.6c1.7,4.3,27.4-3.5,33.8-10.3c4.3-4.7,7.6-5.7,17.8-5.7
	c14.7,0.1,30.2,5.1,37.8,12.2c3,2.8,3.2,3.5,3.2,9.5c0,6.4,0,6.4,3.3,7.3c2.9,0.9,3.3,1.5,4.3,6.4c1.2,6.1,2.5,9,4.8,11
	c1,0.7,1.6,2.8,1.6,5.1c0,3.4,0.4,4.1,2.8,5l2.7,1.1l-3,1.4c-1.6,0.7-4.9,1.3-7.1,1.4c-3.4,0-4.3-0.4-4.7-2.1
	c-0.5-1.7-0.9-1.9-2.5-1c-3.8,2-18.2,26.1-18.2,30.3c0,1.8,0.4,2,3.3,1.4c5.7-1,21-9.3,27.8-15C875.3,360.8,878.1,357.3,879.9,351.8
	z"/>
<path class="st0" d="M847.7,307.7c-1.7-0.3-3.5-1.4-4.1-2.4c-0.7-1.4-2.1-1.9-4.8-1.9c-2.5,0-4.1-0.5-4.4-1.5c-0.8-2-7.2-5-13.5-6.4
	c-6-1.2-6.1-1.2-12,0.1c-3.3,0.7-4.2,1.3-3.8,2.5c1.2,3.2,17,28.9,20.1,32.8c4.1,5.2,4.3,6.1,5.6,25c0.5,8.8,1.4,16.4,1.9,16.9
	c1.7,1.7,5.8-3.4,11-13.6c2.8-5.4,5.9-10.2,7-10.8c1-0.5,3.8-0.7,6.2-0.4c3.4,0.5,4.8,0.2,6.1-1.1c2.2-2.2,2.2-5.2-0.1-5.9
	c-1-0.3-3-3.1-4.5-6.2c-1.6-3.1-4.6-7.8-6.8-10.4c-4.5-5.3-4.7-6.7-1.8-10.4C852.4,310.7,851.7,308.5,847.7,307.7z"/>
<path class="st0" d="M849.2,393.6c1.4,2.2,1.7,2.2,4.2,0.8c1.5-0.9,3.8-3.1,5-4.9c2.1-3,2.2-3.7,0.9-5.5c-1.9-3-7.7-3.3-12-0.7
	c-4.7,2.9-11.6,2.8-14.3-0.2c-2.9-3.2-3.1-4.2-4.8-21.5c-0.9-8.6-2.1-17.5-2.6-19.7c-2.2-8-16.4-33.1-22-38.8
	c-3.1-3-6.4-3.4-9.4-1.1c-3.8,3-16,8.3-23.9,10.4c-7.6,1.9-8.1,1.9-10.4,0.2c-5.4-3.8-6.7-4.2-10.7-3.7c-2.2,0.3-7.8-0.2-12.3-1
	c-4.6-0.9-9.3-1.3-10.5-0.9c-1.2,0.3-4.5,2.4-7.4,4.6s-5.6,3.7-6.2,3.4c-1.3-0.8-11.3,14.9-17.1,26.9c-5.6,11.4-7,13.1-15.7,17.4
	c-3.5,1.7-6.3,3.3-6.3,3.5c0,0.1,1.8,2.1,4,4.4c2.2,2.2,4,4.8,4,5.7c0,3.3,3.1,7.5,7,9.5c4.3,2.2,6.5,5.3,5.6,7.7
	c-1.7,4.3,7.2,10.2,15.5,10.3c7.7,0,13.7,3,9.4,4.6c-2.4,1-1.8,2.7,2.5,6.9c2.7,2.6,4,4.8,4,6.6c0,2.8,1.9,3.9,7,3.9
	c1.4,0,5.3,1,8.5,2.1c5.3,1.9,7.4,2.1,18.5,1.6c14.7-0.7,17.7-1.4,29-7c7.7-3.8,9.2-4.2,15.5-4.1c9.2,0.1,18.2,2.8,21.4,6.5
	c2,2.2,3.4,2.9,6.3,2.9c4.1,0,5.8-1.9,5.8-6.6c0-6.8,6.6-26.4,8.9-26.4C847.1,391.4,848.3,392.4,849.2,393.6z"/>
</svg>
